<svg width="90" height="30" viewBox="0 0 90 30" fill="none" xmlns="http://www.w3.org/2000/svg"><g clip-path="url(#a)"><path d="M84.28 6.32c0-1.81 1-2.72 3-2.72a3.62 3.62 0 0 1 2 .53L90 .92a4.32 4.32 0 0 0-1.54-.67A8.35 8.35 0 0 0 86.33 0a7.25 7.25 0 0 0-4.88 1.54A5.5 5.5 0 0 0 79.65 6v9.25h-7.13V6.32c0-1.81 1-2.72 3-2.72a3.68 3.68 0 0 1 2 .53l.72-3.21A4.32 4.32 0 0 0 76.7.25 8.43 8.43 0 0 0 74.56 0a7.24 7.24 0 0 0-4.87 1.54A5.5 5.5 0 0 0 67.89 6v9.25h-3.54a8.49 8.49 0 0 0-2.09-5.16 8 8 0 0 0-6.18-2.32 8.56 8.56 0 0 0-6.45 2.37 9.17 9.17 0 0 0-2.28 6.63 8.999 8.999 0 0 0 2.35 6.64 9.002 9.002 0 0 0 6.66 2.37 10 10 0 0 0 4.9-1.09 6.16 6.16 0 0 0 2.74-3.2l-3.87-1.42a3 3 0 0 1-1.36 1.59 4.85 4.85 0 0 1-2.45.56C54 22.22 52.51 21 52 18.54h15.89V30h4.84V18.54h6.92V30h4.84V18.54h5.37v-3.32h-5.58v-8.9ZM52 15.22a5 5 0 0 1 1.3-3 3.761 3.761 0 0 1 2.75-1 3.69 3.69 0 0 1 2.7 1 4.92 4.92 0 0 1 1.32 3H52Z" fill="#EA5757"/><path d="m41.29 16.63 6.38-8.89h-5.55L38.27 14l-3.86-6.3h-12.3a7.06 7.06 0 0 0-3.53.91 6 6 0 0 0-2.47 2.65 5.38 5.38 0 0 0-2.25-2.65 6.7 6.7 0 0 0-3.51-.91 6.75 6.75 0 0 0-3.44.88 6.07 6.07 0 0 0-2.42 2.61l-.16-3.45H0v18h4.84v-9.35A5.08 5.08 0 0 1 6 12.77a3.62 3.62 0 0 1 2.73-1.22 2.93 2.93 0 0 1 2.26.87 3.78 3.78 0 0 1 .82 2.7v10.63h4.84v-9.5a5 5 0 0 1 1.09-3.46 3.551 3.551 0 0 1 2.79-1.24 2.918 2.918 0 0 1 2.23.87 3.81 3.81 0 0 1 .81 2.69v10.64h10.34l4.14-6.56 4.07 6.56h5.66l-6.49-9.12Z" fill="#3EA5E6"/><path d="M84.28 6.32c0-1.81 1-2.72 3-2.72a3.62 3.62 0 0 1 2 .53L90 .92a4.32 4.32 0 0 0-1.54-.67A8.35 8.35 0 0 0 86.33 0a7.25 7.25 0 0 0-4.88 1.54A5.5 5.5 0 0 0 79.65 6v9.25h-7.13V6.32c0-1.81 1-2.72 3-2.72a3.68 3.68 0 0 1 2 .53l.72-3.21A4.32 4.32 0 0 0 76.7.25 8.43 8.43 0 0 0 74.56 0a7.24 7.24 0 0 0-4.87 1.54A5.5 5.5 0 0 0 67.89 6v9.25h-3.54a8.49 8.49 0 0 0-2.09-5.16 8 8 0 0 0-6.18-2.32 8.56 8.56 0 0 0-6.45 2.37 9.17 9.17 0 0 0-2.28 6.63 8.999 8.999 0 0 0 2.35 6.64 9.002 9.002 0 0 0 6.66 2.37 10 10 0 0 0 4.9-1.09 6.16 6.16 0 0 0 2.74-3.2l-3.87-1.42a3 3 0 0 1-1.36 1.59 4.85 4.85 0 0 1-2.45.56C54 22.22 52.51 21 52 18.54h15.89V30h4.84V18.54h6.92V30h4.84V18.54h5.37v-3.32h-5.58v-8.9ZM52 15.22a5 5 0 0 1 1.3-3 3.761 3.761 0 0 1 2.75-1 3.69 3.69 0 0 1 2.7 1 4.92 4.92 0 0 1 1.32 3H52Z" fill="#EA5757"/><path d="m41.29 16.63 6.38-8.89h-5.55L38.27 14l-3.86-6.3h-12.3a7.06 7.06 0 0 0-3.53.91 6 6 0 0 0-2.47 2.65 5.38 5.38 0 0 0-2.25-2.65 6.7 6.7 0 0 0-3.51-.91 6.75 6.75 0 0 0-3.44.88 6.07 6.07 0 0 0-2.42 2.61l-.16-3.45H0v18h4.84v-9.35A5.08 5.08 0 0 1 6 12.77a3.62 3.62 0 0 1 2.73-1.22 2.93 2.93 0 0 1 2.26.87 3.78 3.78 0 0 1 .82 2.7v10.63h4.84v-9.5a5 5 0 0 1 1.09-3.46 3.551 3.551 0 0 1 2.79-1.24 2.918 2.918 0 0 1 2.23.87 3.81 3.81 0 0 1 .81 2.69v10.64h10.34l4.14-6.56 4.07 6.56h5.66l-6.49-9.12Z" fill="#3EA5E6"/></g><defs><clipPath id="a"><path fill="#fff" d="M0 0h90v30H0z"/></clipPath></defs></svg>